<?xml version="1.0" standalone="no"?>
<!DOCTYPE svg PUBLIC "-//W3C//DTD SVG 20010904//EN"
 "http://www.w3.org/TR/2001/REC-SVG-20010904/DTD/svg10.dtd">
<svg version="1.0" xmlns="http://www.w3.org/2000/svg"
 width="256.000000pt" height="256.000000pt" viewBox="0 0 256.000000 256.000000"
 preserveAspectRatio="xMidYMid meet">
<metadata>
Created by potrace 1.14, written by Peter Selinger 2001-2017
</metadata>
<g transform="translate(0.000000,256.000000) scale(0.100000,-0.100000)"
fill="#000000" stroke="none">
<path d="M1329 2436 c-2 -2 -53 -6 -114 -9 -60 -4 -121 -8 -135 -11 -14 -3
-36 -7 -50 -10 -84 -15 -267 -91 -360 -148 -57 -35 -165 -124 -219 -180 -28
-29 -57 -60 -66 -69 -8 -9 -15 -21 -15 -27 0 -5 -3 -12 -7 -14 -24 -10 -133
-195 -133 -224 0 -7 -4 -14 -9 -16 -11 -4 -67 -186 -75 -243 -15 -105 -17
-130 -18 -197 -1 -128 21 -266 58 -363 9 -22 16 -42 16 -45 2 -22 69 -163 80
-168 5 -2 8 -8 8 -13 0 -13 68 -113 106 -158 54 -62 122 -127 181 -172 32 -24
60 -46 63 -49 3 -3 23 -15 45 -27 22 -11 56 -30 75 -40 79 -43 239 -97 325
-109 185 -26 333 -18 495 26 94 25 88 23 135 44 22 10 50 22 62 26 26 11 173
99 190 114 6 6 25 22 42 35 77 58 210 213 260 301 43 75 81 152 81 163 0 6 6
24 14 39 8 14 24 68 37 120 28 118 35 353 13 468 -37 194 -117 372 -231 515
-45 56 -187 195 -199 195 -7 0 -14 4 -16 8 -11 27 -200 132 -298 165 -118 40
-152 48 -275 63 -27 3 -53 8 -56 10 -3 2 -8 2 -10 0z"/>
</g>
</svg>
